# xmcd
#
# Track frame offsets:
#	150
#	14388
#	27535
#	42518
#	57898
#	72353
#	85060
#	100333
#	112170
#	131120
#
# Disc length: 1982 seconds
#
# Revision: 1
# Processed by: cddbd v1.5PL3 Copyright (c) Steve Scherf et al.
# Submitted via: audiograbber 1.83.01
#
DISCID=8e07bc0a
DTITLE=The Short Brothers Band - Just How Wild Do You Want It To Be
DYEAR=1900
DGENRE=Country
TTITLE0=P.A.R.T.Y.
TTITLE1=Tampa
TTITLE2=Salt Lick Road
TTITLE3=Three Hearts
TTITLE4=Faded Dream
TTITLE5=Country Roads
TTITLE6=Somewhere Between Good Lovin' And A Heartache
TTITLE7=Lodi
TTITLE8=Brothers
TTITLE9=Theme Song
EXTD=Continental Records\n744 Joppa Farm Road\nJoppatown, MD 21085 USA\n410 679
EXTD=2262
EXTT0=
EXTT1=
EXTT2=
EXTT3=
EXTT4=
EXTT5=
EXTT6=
EXTT7=
EXTT8=
EXTT9=
PLAYORDER=
